<svg width="1105" height="540" viewBox="0 0 1105 540" fill="none" xmlns="http://www.w3.org/2000/svg">
<path fill-rule="evenodd" clip-rule="evenodd" d="M533.83 21.0991C537.483 23.0171 541.456 23.9761 545.749 23.9761C550.042 23.9761 553.969 23.0171 557.531 21.0991C561.184 19.1811 564.061 16.4411 566.162 12.8791C568.263 9.31711 569.313 5.16144 569.313 0.412109H555.75C555.75 3.97411 554.791 6.62277 552.873 8.3581C551.046 10.0021 548.672 10.8241 545.749 10.8241C542.826 10.8241 540.406 10.0021 538.488 8.3581C536.661 6.62277 535.748 3.97411 535.748 0.412109H522.185C522.185 5.16144 523.235 9.31711 525.336 12.8791C527.437 16.4411 530.268 19.1811 533.83 21.0991ZM519.582 104.532L521.911 27.6751H488.346C489.077 45.3938 489.442 61.9251 489.442 77.2691C489.442 92.7044 489.077 109.281 488.346 127H537.392L570.546 52.1981L568.08 127H603.289C602.65 111.565 602.33 94.9878 602.33 77.2691C602.33 59.6418 602.65 43.1104 603.289 27.6751H552.873L519.582 104.532ZM115.491 27.5381C114.852 39.0461 114.532 55.5774 114.532 77.1321C114.532 98.6868 114.852 115.218 115.491 126.726H80.967L81.378 101.929C71.24 108.87 59.458 112.341 46.032 112.341C31.784 112.341 21.5546 109.007 15.344 102.34C9.22465 95.6728 6.16498 85.9914 6.16498 73.2961V57.1301C6.16498 44.7088 5.93665 34.8448 5.47998 27.5381H37.949C37.401 40.9641 37.127 53.4768 37.127 65.0761C37.127 69.7341 37.7663 73.4788 39.045 76.3101C40.415 79.1414 42.6526 81.2421 45.758 82.6121C48.9547 83.9821 53.3843 84.6671 59.047 84.6671C68.2717 84.6671 75.761 81.7901 81.515 76.0361V62.6101C81.515 46.2614 81.3323 34.5708 80.967 27.5381H115.491ZM154.51 27.6751L152.181 104.532L185.472 27.6751H235.888C235.249 43.1104 234.929 59.6418 234.929 77.2691C234.929 94.9878 235.249 111.565 235.888 127H200.679L203.145 52.1981L169.991 127H120.945C121.676 109.281 122.041 92.7044 122.041 77.2691C122.041 61.9251 121.676 45.3938 120.945 27.6751H154.51ZM317.259 55.4861C330.776 55.5774 344.704 55.8514 359.044 56.3081V27.5381H241.361V56.3081C255.517 55.8514 269.4 55.5774 283.009 55.4861V127H317.259V55.4861ZM451.033 127C449.298 121.794 446.969 115.264 444.046 107.409H400.343L393.493 127H359.106L397.466 27.5381H447.882L486.516 127H451.033ZM436.237 86.0371C432.766 76.4471 429.204 66.8571 425.551 57.2671L422.263 48.3621C419.066 56.6734 414.363 69.2318 408.152 86.0371H436.237ZM726.445 56.3081C712.105 55.8514 698.177 55.5774 684.66 55.4861V127H650.41V55.4861C636.801 55.5774 622.918 55.8514 608.762 56.3081V27.5381H726.445V56.3081ZM839.806 100.422C824.188 101.244 799.025 101.746 764.319 101.929V87.6811C768.703 87.5898 775.187 87.5441 783.773 87.5441C798.295 87.5441 813.319 87.8181 828.846 88.3661V64.8021C813.319 65.3501 798.295 65.6241 783.773 65.6241C775.187 65.6241 768.703 65.5784 764.319 65.4871V52.3351H838.436V27.5381H731.987C732.717 45.2568 733.083 61.8338 733.083 77.2691C733.083 92.7044 732.717 109.281 731.987 127H838.436C838.436 120.972 838.481 115.994 838.573 112.067C838.755 108.048 839.166 104.167 839.806 100.422ZM465.662 231.121C462.83 225.732 458.72 220.846 453.332 216.462C448.4 212.535 442.92 209.384 436.892 207.009L479.499 164.539H435.111C428.169 174.403 417.575 186.368 403.327 200.433C401.5 200.433 400.13 200.387 399.217 200.296V164.539H365.104C365.834 182.258 366.2 198.835 366.2 214.27C366.2 229.705 365.834 246.282 365.104 264.001H399.217V230.162C407.254 230.162 413.556 230.664 418.123 231.669C422.781 232.582 426.662 234.683 429.768 237.971C431.686 240.072 433.147 242.538 434.152 245.369C435.248 248.2 436.252 251.717 437.166 255.918C438.079 259.754 438.81 262.448 439.358 264.001H479.636C478.266 261.444 476.439 257.014 474.156 250.712C471.416 242.949 468.584 236.418 465.662 231.121ZM756.917 241.533L759.246 164.676H725.681C726.412 182.395 726.777 198.926 726.777 214.27C726.777 229.705 726.412 246.282 725.681 264.001H774.727L807.881 189.199L805.415 264.001H840.624C839.985 248.566 839.665 231.989 839.665 214.27C839.665 196.643 839.985 180.111 840.624 164.676H790.208L756.917 241.533ZM879.525 264.001H846.097C846.827 246.191 847.193 229.614 847.193 214.27C847.193 198.835 846.827 182.258 846.097 164.539H943.093C942.91 172.028 942.819 177.737 942.819 181.664C942.819 186.505 942.864 190.158 942.956 192.624H879.525V264.001ZM979.82 241.533L982.149 164.676H948.584C949.315 182.395 949.68 198.926 949.68 214.27C949.68 229.705 949.315 246.282 948.584 264.001H997.63L1030.78 189.199L1028.32 264.001H1063.53C1062.89 248.566 1062.57 231.989 1062.57 214.27C1062.57 196.643 1062.89 180.111 1063.53 164.676H1013.11L979.82 241.533ZM331.681 349.625C328.485 349.625 325.242 349.945 321.954 350.584C330.083 348.301 336.294 346.017 340.586 343.734C344.879 341.359 347.756 338.985 349.217 336.61C350.679 334.144 351.409 331.358 351.409 328.253C351.409 322.956 349.263 318.161 344.97 313.868C340.769 309.575 334.924 306.242 327.434 303.867C320.036 301.401 311.679 300.168 302.363 300.168C288.024 300.168 276.288 302.862 267.154 308.251C258.112 313.64 251.399 321.266 247.015 331.13C258.067 332.774 268.479 335.56 278.251 339.487C280.443 334.464 283.503 330.628 287.43 327.979C291.449 325.33 296.655 324.006 303.048 324.006C307.98 324.006 311.588 324.737 313.871 326.198C316.246 327.568 317.433 329.395 317.433 331.678C317.433 333.687 315.241 335.012 310.857 335.651C306.473 336.199 300.811 336.473 293.869 336.473H287.567V360.448H297.979C304.099 360.448 308.848 360.631 312.227 360.996C315.607 361.27 318.073 361.818 319.625 362.64C321.178 363.462 321.954 364.649 321.954 366.202C321.954 369.125 319.945 371.317 315.926 372.778C311.908 374.239 306.702 374.97 300.308 374.97C294.28 374.97 289.531 374.011 286.06 372.093C282.681 370.084 280.078 366.796 278.251 362.229C275.237 363.782 271.721 365.197 267.702 366.476C263.775 367.663 258.98 368.942 253.317 370.312L245.645 372.23C254.139 392.323 272.817 402.37 301.678 402.37C311.634 402.37 320.676 401.091 328.804 398.534C336.933 395.885 343.372 392.049 348.121 387.026C352.871 381.911 355.245 375.746 355.245 368.531C355.245 365.426 354.469 362.457 352.916 359.626C351.364 356.703 348.806 354.329 345.244 352.502C341.774 350.584 337.253 349.625 331.681 349.625ZM67.678 301.675C85.8533 301.675 98.503 304.917 105.627 311.402C112.751 317.795 116.313 326.837 116.313 338.528C116.313 346.565 114.897 353.415 112.066 359.078C109.235 364.649 104.257 369.033 97.133 372.23C90.009 375.335 80.1907 376.888 67.678 376.888H39.182V401H5.47998C6.21065 383.281 6.57598 366.704 6.57598 351.269C6.57598 335.834 6.21065 319.257 5.47998 301.538H39.182V301.675H67.678ZM58.088 350.447C65.6687 350.447 71.3313 350.173 75.076 349.625C78.912 348.986 81.5606 347.89 83.022 346.337C84.5746 344.784 85.351 342.501 85.351 339.487C85.351 336.473 84.6203 334.235 83.159 332.774C81.789 331.221 79.186 330.171 75.35 329.623C71.6053 329.075 65.8513 328.801 58.088 328.801H39.182V350.447H58.088ZM208.195 401C206.46 395.794 204.131 389.264 201.208 381.409H157.505L150.655 401H116.268L154.628 301.538H205.044L243.678 401H208.195ZM193.399 360.037C189.928 350.447 186.366 340.857 182.713 331.267L179.425 322.362C176.228 330.673 171.525 343.232 165.314 360.037H193.399ZM440.988 351.543C461.812 351.543 472.224 358.165 472.224 371.408C472.224 377.619 470.808 382.916 467.977 387.3C465.146 391.593 460.077 394.972 452.77 397.438C445.463 399.813 435.325 401 422.356 401H360.706C361.437 383.281 361.802 366.704 361.802 351.269C361.802 335.834 361.437 319.257 360.706 301.538H392.901V301.675H422.082C433.407 301.675 442.312 302.634 448.797 304.552C455.373 306.379 459.985 309.073 462.634 312.635C465.374 316.197 466.744 320.718 466.744 326.198C466.744 331.769 464.78 336.747 460.853 341.131C457.017 345.424 450.395 348.894 440.988 351.543ZM392.901 326.609V339.35H419.205C424.868 339.35 428.795 338.848 430.987 337.843C433.27 336.838 434.412 335.012 434.412 332.363C434.412 330.262 433.225 328.801 430.85 327.979C428.567 327.066 424.685 326.609 419.205 326.609H392.901ZM419.205 375.929C423.954 375.929 427.562 375.746 430.028 375.381C432.585 374.924 434.412 374.194 435.508 373.189C436.604 372.093 437.152 370.632 437.152 368.805C437.152 366.43 435.828 364.741 433.179 363.736C430.622 362.64 425.964 362.092 419.205 362.092H392.901V375.929H419.205ZM709.576 371.408C709.576 358.165 699.164 351.543 678.341 351.543C687.748 348.894 694.37 345.424 698.206 341.131C702.133 336.747 704.096 331.769 704.096 326.198C704.096 320.718 702.727 316.197 699.987 312.635C697.338 309.073 692.725 306.379 686.149 304.552C679.665 302.634 670.76 301.675 659.435 301.675H630.253V301.538H598.058C598.789 319.257 599.154 335.834 599.154 351.269C599.154 366.704 598.789 383.281 598.058 401H659.708C672.678 401 682.816 399.813 690.122 397.438C697.429 394.972 702.498 391.593 705.329 387.3C708.161 382.916 709.576 377.619 709.576 371.408ZM630.253 339.35V326.609H656.557C662.037 326.609 665.919 327.066 668.203 327.979C670.577 328.801 671.764 330.262 671.764 332.363C671.764 335.012 670.623 336.838 668.339 337.843C666.147 338.848 662.22 339.35 656.557 339.35H630.253ZM667.38 375.381C664.914 375.746 661.307 375.929 656.557 375.929H630.253V362.092H656.557C663.316 362.092 667.974 362.64 670.531 363.736C673.18 364.741 674.505 366.43 674.505 368.805C674.505 370.632 673.956 372.093 672.86 373.189C671.764 374.194 669.938 374.924 667.38 375.381ZM801.443 401C799.707 395.794 797.378 389.264 794.456 381.409H750.753L743.903 401H709.516L747.875 301.538H798.292L836.926 401H801.443ZM786.646 360.037C783.176 350.447 779.614 340.857 775.961 331.267L772.672 322.362C769.476 330.673 764.772 343.232 758.562 360.037H786.646ZM507.251 515.156L509.582 301.551H476C476.731 319.211 477.097 335.689 477.097 350.983C477.097 366.367 476.731 519.89 476 537.551H525.07L558.241 325.994L555.774 537.551H591C590.36 522.166 590.041 368.643 590.041 350.983C590.041 333.413 590.36 316.936 591 301.551H540.559L507.251 515.156ZM1105 339H889V364H1105V339ZM427 476H0V501H427V476ZM849.104 526.217C858.877 534.985 874.084 539.369 894.725 539.369C907.329 539.369 918.974 537.177 929.66 532.793C940.346 528.409 947.973 520.691 952.539 509.64C940.849 504.617 931.259 500.096 923.769 496.077C921.669 501.557 918.381 505.576 913.905 508.133C909.43 510.599 903.402 511.832 895.821 511.832C886.323 511.832 879.244 509.549 874.586 504.982C870.02 500.324 867.736 494.342 867.736 487.035C867.736 480.276 869.883 474.614 874.175 470.047C878.468 465.389 884.998 463.06 893.766 463.06C899.703 463.06 905.503 464.293 911.165 466.759C916.919 469.225 921.121 473.016 923.769 478.13C934.821 472.467 944.456 468.22 952.676 465.389C942.904 445.57 923.587 435.66 894.725 435.66C874.084 435.66 858.877 440.409 849.104 449.908C839.332 459.407 834.445 472.331 834.445 488.679C834.445 504.936 839.332 517.449 849.104 526.217ZM715.578 467.307C701.239 466.85 687.311 466.576 673.794 466.485V537.999H639.544V466.485C625.935 466.576 612.052 466.85 597.896 467.307V438.537H715.578V467.307ZM753.453 512.928C788.159 512.745 813.322 512.243 828.94 511.421C828.3 515.166 827.889 519.047 827.707 523.066C827.615 526.993 827.57 531.971 827.57 537.999H721.121C721.851 520.281 722.217 503.703 722.217 488.268C722.217 472.833 721.851 456.256 721.121 438.537H827.57V463.334H753.453V476.486C757.837 476.577 764.321 476.623 772.907 476.623C787.429 476.623 802.453 476.349 817.98 475.801V499.365C802.453 498.817 787.429 498.543 772.907 498.543C764.321 498.543 757.837 498.589 753.453 498.68V512.928ZM1016.29 462.649C1028.81 462.649 1038.62 464.247 1045.75 467.444C1052.87 470.549 1057.85 474.933 1060.68 480.596C1063.51 486.167 1064.93 492.972 1064.93 501.009C1064.93 512.7 1061.37 521.787 1054.24 528.272C1047.12 534.666 1034.47 537.862 1016.29 537.862H991.907V537.999H958.206C958.936 520.281 959.302 503.703 959.302 488.268C959.302 472.833 958.936 456.256 958.206 438.537H991.907V462.649H1016.29ZM1010.81 510.736C1017.21 510.736 1022 510.462 1025.2 509.914C1028.49 509.275 1030.77 508.224 1032.05 506.763C1033.33 505.302 1033.97 503.064 1033.97 500.05C1033.97 497.036 1033.28 494.753 1031.91 493.2C1030.54 491.647 1028.21 490.597 1024.92 490.049C1021.73 489.41 1017.02 489.09 1010.81 489.09H991.907V510.736H1010.81ZM720 164.699C719.361 180.218 719.041 196.885 719.041 214.699C719.041 232.514 719.361 249.18 720 264.699H687.812V227.234H516.188V264.699H484C484.73 246.885 485.096 230.218 485.096 214.699C485.096 199.18 484.73 182.514 484 164.699H516.188V202.165H687.812V164.699H720Z" fill="#0A0A0A"/>
</svg>
