<svg width="966" height="230" viewBox="0 0 966 230" fill="none" xmlns="http://www.w3.org/2000/svg">
<path fill-rule="evenodd" clip-rule="evenodd" d="M157.389 90.84C139.069 90.84 125.589 86.88 116.949 78.96C108.309 70.96 103.989 59.76 103.989 45.36C103.989 31.12 108.269 20 116.829 12C125.469 4 138.989 0 157.389 0C175.869 0 189.389 4 197.949 12C206.589 20 210.909 31.12 210.909 45.36C210.909 59.84 206.629 71.04 198.069 78.96C189.509 86.88 175.949 90.84 157.389 90.84ZM157.389 66.36C166.269 66.36 172.669 64.68 176.589 61.32C180.509 57.88 182.469 52.56 182.469 45.36C182.469 38.32 180.509 33.08 176.589 29.64C172.669 26.2 166.269 24.48 157.389 24.48C148.589 24.48 142.229 26.2 138.309 29.64C134.389 33.08 132.429 38.32 132.429 45.36C132.429 52.48 134.389 57.76 138.309 61.2C142.229 64.64 148.589 66.36 157.389 66.36ZM472.607 189.96L474.653 2.63989H445.16C445.802 18.1599 446.123 32.6399 446.123 46.0799C446.123 59.5999 445.802 194.12 445.16 209.64H488.256L517.389 24.1199L515.222 209.64H546.16C545.598 196.12 545.317 61.5999 545.317 46.0799C545.317 30.6399 545.598 16.1599 546.16 2.63989H501.86L472.607 189.96ZM799.647 116.88C802.847 118.56 806.327 119.4 810.087 119.4C813.847 119.4 817.287 118.56 820.407 116.88C823.607 115.2 826.127 112.8 827.967 109.68C829.807 106.56 830.727 102.92 830.727 98.76H818.847C818.847 101.88 818.007 104.2 816.327 105.72C814.727 107.16 812.647 107.88 810.087 107.88C807.527 107.88 805.407 107.16 803.727 105.72C802.127 104.2 801.327 101.88 801.327 98.76H789.447C789.447 102.92 790.367 106.56 792.207 109.68C794.047 112.8 796.527 115.2 799.647 116.88ZM787.167 189.96L789.207 122.64H759.807C760.447 138.16 760.767 152.64 760.767 166.08C760.767 179.6 760.447 194.12 759.807 209.64H802.767L831.807 144.12L829.647 209.64H860.487C859.927 196.12 859.647 181.6 859.647 166.08C859.647 150.64 859.927 136.16 860.487 122.64H816.327L787.167 189.96ZM216.684 198.96C225.324 206.88 238.804 210.84 257.124 210.84C275.684 210.84 289.244 206.88 297.804 198.96C306.364 191.04 310.644 179.84 310.644 165.36C310.644 151.12 306.324 140 297.684 132C289.124 124 275.604 120 257.124 120C238.724 120 225.204 124 216.564 132C208.004 140 203.724 151.12 203.724 165.36C203.724 179.76 208.044 190.96 216.684 198.96ZM276.324 181.32C272.404 184.68 266.004 186.36 257.124 186.36C248.324 186.36 241.964 184.64 238.044 181.2C234.124 177.76 232.164 172.48 232.164 165.36C232.164 158.32 234.124 153.08 238.044 149.64C241.964 146.2 248.324 144.48 257.124 144.48C266.004 144.48 272.404 146.2 276.324 149.64C280.244 153.08 282.204 158.32 282.204 165.36C282.204 172.56 280.244 177.88 276.324 181.32ZM97.1199 122.52C96.5599 136.04 96.2799 150.56 96.2799 166.08C96.2799 181.6 96.5599 196.12 97.1199 209.64H68.9199V146.76H28.3599V209.64H0.159912C0.799912 194.12 1.11991 179.6 1.11991 166.08C1.11991 152.56 0.799912 138.04 0.159912 122.52H97.1199ZM156.363 122.64C172.283 122.64 183.363 125.48 189.603 131.16C195.843 136.76 198.963 144.68 198.963 154.92C198.963 161.96 197.723 167.96 195.243 172.92C192.763 177.8 188.403 181.64 182.163 184.44C175.923 187.16 167.323 188.52 156.363 188.52H131.403V209.64H101.883C102.523 194.12 102.843 179.6 102.843 166.08C102.843 152.56 102.523 138.04 101.883 122.52H131.403V122.64H156.363ZM147.963 165.36C154.603 165.36 159.563 165.12 162.843 164.64C166.203 164.08 168.523 163.12 169.803 161.76C171.163 160.4 171.843 158.4 171.843 155.76C171.843 153.12 171.203 151.16 169.923 149.88C168.723 148.52 166.443 147.6 163.083 147.12C159.803 146.64 154.763 146.4 147.963 146.4H131.403V165.36H147.963ZM435.312 188.28H440.232V229.44H411.792V212.04H358.272V229.8H329.832V188.28H335.832C339.272 187.64 341.912 186.24 343.752 184.08C345.592 181.92 346.952 178.48 347.832 173.76C348.552 169.84 348.912 160.92 348.912 147L348.792 122.52L435.312 122.64V188.28ZM375.792 183.12C375.312 185.36 374.872 187.08 374.472 188.28H404.952V146.04H378.072L377.952 153C377.952 159.08 377.792 164.44 377.472 169.08C377.232 173.64 376.672 178.32 375.792 183.12ZM625.981 164.64C623.181 164.64 620.341 164.92 617.461 165.48C624.581 163.48 630.021 161.48 633.781 159.48C637.541 157.4 640.061 155.32 641.341 153.24C642.621 151.08 643.261 148.64 643.261 145.92C643.261 141.28 641.381 137.08 637.621 133.32C633.941 129.56 628.821 126.64 622.261 124.56C615.781 122.4 608.461 121.32 600.301 121.32C587.741 121.32 577.461 123.68 569.461 128.4C561.541 133.12 555.661 139.8 551.821 148.44C561.501 149.88 570.621 152.32 579.181 155.76C581.101 151.36 583.781 148 587.221 145.68C590.741 143.36 595.301 142.2 600.901 142.2C605.221 142.2 608.381 142.84 610.381 144.12C612.461 145.32 613.501 146.92 613.501 148.92C613.501 150.68 611.581 151.84 607.741 152.4C603.901 152.88 598.941 153.12 592.861 153.12H587.341V174.12H596.461C601.821 174.12 605.981 174.28 608.941 174.6C611.901 174.84 614.061 175.32 615.421 176.04C616.781 176.76 617.461 177.8 617.461 179.16C617.461 181.72 615.701 183.64 612.181 184.92C608.661 186.2 604.101 186.84 598.501 186.84C593.221 186.84 589.061 186 586.021 184.32C583.061 182.56 580.781 179.68 579.181 175.68C576.541 177.04 573.461 178.28 569.941 179.4C566.501 180.44 562.301 181.56 557.341 182.76L550.621 184.44C558.061 202.04 574.421 210.84 599.701 210.84C608.421 210.84 616.341 209.72 623.461 207.48C630.581 205.16 636.221 201.8 640.381 197.4C644.541 192.92 646.621 187.52 646.621 181.2C646.621 178.48 645.941 175.88 644.581 173.4C643.221 170.84 640.981 168.76 637.861 167.16C634.821 165.48 630.861 164.64 625.981 164.64ZM727.124 209.64C725.604 205.08 723.564 199.36 721.004 192.48H682.724L676.724 209.64H646.604L680.204 122.52H724.364L758.204 209.64H727.124ZM714.164 173.76C711.124 165.36 708.004 156.96 704.804 148.56L701.924 140.76C699.124 148.04 695.004 159.04 689.564 173.76H714.164ZM965.84 122.52C965.28 136.04 965 150.56 965 166.08C965 181.6 965.28 196.12 965.84 209.64H937.64V177H893.48V209.64H865.28C865.92 194.12 866.24 179.6 866.24 166.08C866.24 152.56 865.92 138.04 865.28 122.52H893.48V155.16H937.64V122.52H965.84ZM322.977 60.84C320.497 56.12 316.897 51.84 312.177 48C307.857 44.56 303.057 41.8 297.777 39.72L335.097 2.52002H296.217C290.137 11.16 280.857 21.64 268.377 33.96C266.777 33.96 265.577 33.92 264.777 33.84V2.52002H234.897C235.537 18.04 235.857 32.56 235.857 46.08C235.857 59.6 235.537 74.12 234.897 89.64H264.777V60C271.817 60 277.337 60.44 281.337 61.32C285.417 62.12 288.817 63.96 291.537 66.84C293.217 68.68 294.497 70.84 295.377 73.32C296.337 75.8 297.217 78.88 298.017 82.56C298.817 85.92 299.457 88.28 299.937 89.64H335.217C334.017 87.4 332.417 83.52 330.417 78C328.017 71.2 325.537 65.48 322.977 60.84ZM440.578 2.52002C440.018 16.04 439.738 30.56 439.738 46.08C439.738 61.6 440.018 76.12 440.578 89.64H412.378V57H368.218V89.64H340.018C340.658 74.12 340.978 59.6 340.978 46.08C340.978 32.56 340.658 18.04 340.018 2.52002H368.218V35.16H412.378V2.52002H440.578ZM550.848 89.64H580.128V27.12H635.688C635.608 24.96 635.568 21.76 635.568 17.52C635.568 14.08 635.648 9.08002 635.808 2.52002H550.848C551.488 18.04 551.808 32.56 551.808 46.08C551.808 59.52 551.488 74.04 550.848 89.64ZM716.339 89.64C714.819 85.08 712.779 79.36 710.219 72.48H671.938L665.938 89.64H635.818L669.418 2.52002H713.578L746.361 86.9155L779.262 45L745.422 2.52002H780.102L796.302 24.12L812.382 2.52002H847.062L813.222 45L848.262 89.64H813.582L796.302 66.12L778.902 89.64H747.419H744.222H716.339ZM703.378 53.76C700.338 45.36 697.218 36.96 694.018 28.56L691.138 20.76C688.338 28.04 684.219 39.04 678.779 53.76H703.378Z" fill="#0A0A0A"/>
</svg>
