<svg width="94" height="20" viewBox="0 0 94 20" fill="none" xmlns="http://www.w3.org/2000/svg">
<path fill-rule="evenodd" clip-rule="evenodd" d="M49.8097 4.595H46.8837V15.515H49.8097V4.595ZM46.6747 2.18C46.6747 3.104 47.4271 3.86 48.3467 3.86C49.2663 3.86 50.0187 3.104 50.0187 2.18C50.0187 1.256 49.2663 0.5 48.3467 0.5C47.4271 0.5 46.6747 1.256 46.6747 2.18ZM6.1205 15.83C1.836 15.83 1 13.205 1 11.945H3.8215C3.8215 11.945 3.8215 13.835 6.1205 13.835C7.688 13.835 8.106 13.1 8.106 12.47C8.106 11.4864 6.85541 11.2452 5.41928 10.9683C3.48281 10.595 1.209 10.1565 1.209 7.745C1.209 5.855 2.9855 4.28 5.9115 4.28C10.0915 4.28 10.7185 6.695 10.7185 7.745H7.897C7.897 7.745 7.897 6.275 5.9115 6.275C4.762 6.275 4.135 6.863 4.135 7.535C4.135 8.29958 5.2637 8.53147 6.60789 8.80764C8.58649 9.21415 11.032 9.71658 11.032 12.155C11.032 14.255 9.2555 15.83 6.1205 15.83ZM17.4016 6.485C15.5415 6.485 14.7891 8.081 14.7891 10.055C14.7891 12.029 15.5415 13.625 17.4016 13.625C19.2617 13.625 20.0141 12.029 20.0141 10.055C20.0141 8.081 19.2617 6.485 17.4016 6.485ZM17.4016 15.83C13.8277 15.83 11.8631 13.247 11.8631 10.055C11.8631 6.863 13.8277 4.28 17.4016 4.28C20.9755 4.28 22.9401 6.863 22.9401 10.055C22.9401 13.247 20.9755 15.83 17.4016 15.83ZM24.0961 15.515H27.0221V9.845C27.0221 7.64 27.8581 6.695 29.4256 6.695C30.7841 6.695 31.3066 7.535 31.3066 9.425V15.515H34.2326V8.795C34.2326 6.275 33.3966 4.28 30.3661 4.28C27.9626 4.28 27.0221 6.38 27.0221 6.38H26.9176V4.595H24.0961V15.515ZM38.4159 15.515H35.4899V4.595H38.3114V6.38H38.4159C38.4159 6.38 39.3564 4.28 41.7599 4.28C44.7904 4.28 45.6264 6.275 45.6264 8.795V15.515H42.7004V9.425C42.7004 7.535 42.1779 6.695 40.8194 6.695C39.2519 6.695 38.4159 7.64 38.4159 9.845V15.515ZM58.7011 4.595H61.8361L57.9696 15.83C57.1127 18.329 55.9841 19.61 53.7896 19.61C52.7446 19.61 51.9086 19.295 51.9086 19.295V16.88C51.9086 16.88 52.5356 17.09 53.2671 17.09C54.3121 17.09 54.7301 16.523 55.1481 15.515L50.7591 4.595H53.8941L56.5484 11.798L58.7011 4.595ZM68.4157 6.45108C68.1978 7.03014 68.1979 7.03022 68.1979 7.03022L68.2005 7.0318L68.2068 7.03567L68.2301 7.04971C68.2503 7.06178 68.2794 7.07916 68.3169 7.10108C68.3917 7.14492 68.4995 7.207 68.6336 7.28125C68.9015 7.42957 69.276 7.62741 69.7031 7.8256C70.5388 8.21345 71.6426 8.63513 72.5437 8.63513C73.4448 8.63513 74.5486 8.21345 75.3843 7.8256C75.8113 7.62741 76.1859 7.42957 76.4538 7.28125C76.5879 7.207 76.6957 7.14492 76.7705 7.10108L76.8315 7.06509L76.8573 7.04971L76.8805 7.03567L76.8869 7.0318L76.8895 7.03022C76.8895 7.03022 76.8896 7.03014 76.6717 6.45108C76.4538 5.87202 76.4538 5.87203 76.4538 5.87203L76.4529 5.87259L76.4483 5.87533L76.4289 5.88707C76.4113 5.89758 76.3849 5.91333 76.3504 5.93356C76.2813 5.97404 76.18 6.0324 76.053 6.10268C75.7988 6.24343 75.4436 6.43101 75.0402 6.61824C74.2149 7.00123 73.2546 7.35039 72.5437 7.35039C71.8327 7.35039 70.8725 7.00123 70.0472 6.61824C69.6438 6.43101 69.2886 6.24343 69.0344 6.10268C68.9074 6.0324 68.8061 5.97404 68.737 5.93356C68.7025 5.91333 68.6761 5.89758 68.6585 5.88707L68.6391 5.87533L68.6345 5.87259L68.6335 5.87197L68.4157 6.45108ZM84.7256 6.54702C84.5076 7.12608 84.5077 7.12612 84.5078 7.12616L84.5104 7.12775L84.5167 7.13161L84.54 7.14565C84.5601 7.15772 84.5893 7.1751 84.6267 7.19703C84.7015 7.24086 84.8094 7.30294 84.9435 7.3772C85.2114 7.52551 85.5859 7.72335 86.013 7.92154C86.8487 8.30939 87.9524 8.73107 88.8536 8.73107C89.7547 8.73107 90.8584 8.30939 91.6942 7.92154C92.1212 7.72335 92.4958 7.52551 92.7636 7.3772C92.8978 7.30294 93.0056 7.24086 93.0804 7.19703C93.1178 7.1751 93.147 7.15772 93.1671 7.14565L93.1904 7.13161L93.1968 7.12775L93.1994 7.12616C93.1994 7.12612 93.1995 7.12608 92.9816 6.54702L92.778 6.0063L92.7636 5.96797L92.7627 5.96853L92.7582 5.97128L92.7387 5.98302C92.7212 5.99353 92.6948 6.00927 92.6602 6.0295C92.5912 6.06998 92.4898 6.12834 92.3629 6.19862C92.1087 6.33937 91.7535 6.52695 91.35 6.71418C90.5248 7.09717 89.5645 7.44633 88.8536 7.44633C88.1426 7.44633 87.1824 7.09717 86.3571 6.71418C85.9537 6.52695 85.5985 6.33937 85.3442 6.19862C85.2173 6.12834 85.116 6.06998 85.0469 6.0295C85.0124 6.00927 84.9859 5.99353 84.9684 5.98302L84.9489 5.97128L84.9444 5.96853L84.9434 5.96791L84.7256 6.54702ZM83.5175 12.9245C83.5175 14.3552 82.3004 15.515 80.7991 15.515C79.2977 15.515 78.0806 14.3552 78.0806 12.9245C78.0806 11.4938 79.2977 10.334 80.7991 10.334C82.3004 10.334 83.5175 11.4938 83.5175 12.9245Z" fill="#0A0A0A"/>
</svg>
