<svg width="32" height="210" viewBox="0 0 32 210" fill="#0A0A0A" xmlns="http://www.w3.org/2000/svg">
<g opacity="0.85">
<path d="M17.5 2C17.5 1.17157 16.8284 0.5 16 0.5C15.1716 0.5 14.5 1.17157 14.5 2L17.5 2ZM14.5 206C14.5 206.828 15.1716 207.5 16 207.5C16.8284 207.5 17.5 206.828 17.5 206L14.5 206ZM14.5 2L14.5 206L17.5 206L17.5 2L14.5 2Z"/>
<path d="M31.5607 194.561C32.1464 193.975 32.1464 193.025 31.5607 192.439C30.9749 191.854 30.0251 191.854 29.4393 192.439L31.5607 194.561ZM16 208L14.9393 209.061C15.2206 209.342 15.6022 209.5 16 209.5C16.3978 209.5 16.7794 209.342 17.0607 209.061L16 208ZM2.56066 192.439C1.97487 191.854 1.02513 191.854 0.43934 192.439C-0.146447 193.025 -0.146447 193.975 0.43934 194.561L2.56066 192.439ZM29.4393 192.439L14.9393 206.939L17.0607 209.061L31.5607 194.561L29.4393 192.439ZM17.0607 206.939L2.56066 192.439L0.43934 194.561L14.9393 209.061L17.0607 206.939Z"/>
</g>
</svg>
