<svg width="24" height="25" viewBox="0 0 24 25" fill="#0A0A0A" xmlns="http://www.w3.org/2000/svg">
<path fill-rule="evenodd" clip-rule="evenodd" d="M6.69486 17.804C6.4996 17.6087 6.4996 17.2921 6.69486 17.0969L16.5944 7.19739C16.7896 7.00213 17.1062 7.00213 17.3015 7.19739C17.4967 7.39265 17.4967 7.70923 17.3015 7.9045L7.40197 17.804C7.20671 17.9993 6.89012 17.9993 6.69486 17.804Z"/>
<path fill-rule="evenodd" clip-rule="evenodd" d="M6.55012 7.5498C6.55012 7.27366 6.77398 7.0498 7.05012 7.0498L16.9496 7.0498C17.2258 7.0498 17.4496 7.27366 17.4496 7.5498L17.4496 17.4493C17.4496 17.7254 17.2258 17.9493 16.9496 17.9493C16.6735 17.9493 16.4496 17.7254 16.4496 17.4493L16.4496 8.0498L7.05012 8.0498C6.77398 8.0498 6.55012 7.82595 6.55012 7.5498Z"/>
</svg>
