<?xml version="1.0" encoding="utf-8"?><svg viewBox="0 0 502.66 502.66" xmlns="http://www.w3.org/2000/svg" xmlns:xlink="http://www.w3.org/1999/xlink"><style>:root>svg{display:none}:root>svg:target{display:block}</style><svg viewBox="0 0 32 210" id="arrow-down" xmlns="http://www.w3.org/2000/svg"><g opacity=".85"><path d="M17.5 2a1.5 1.5 0 00-3 0h3zm-3 204a1.5 1.5 0 003 0h-3zm0-204v204h3V2h-3z"/><path d="M31.56 194.561a1.501 1.501 0 00-2.12-2.122l2.12 2.122zM16 208l-1.06 1.061a1.501 1.501 0 002.12 0L16 208zM2.56 192.439a1.501 1.501 0 00-2.12 2.122l2.12-2.122zm26.88 0l-14.5 14.5 2.12 2.122 14.5-14.5-2.12-2.122zm-12.38 14.5l-14.5-14.5-2.12 2.122 14.5 14.5 2.12-2.122z"/></g></svg><svg viewBox="0 0 24 25" id="arrow-right" xmlns="http://www.w3.org/2000/svg"><path fill-rule="evenodd" clip-rule="evenodd" d="M6.695 17.804a.5.5 0 010-.707l9.9-9.9a.5.5 0 11.707.707l-9.9 9.9a.5.5 0 01-.707 0z"/><path fill-rule="evenodd" clip-rule="evenodd" d="M6.55 7.55a.5.5 0 01.5-.5h9.9a.5.5 0 01.5.5v9.9a.5.5 0 11-1 0v-9.4h-9.4a.5.5 0 01-.5-.5z"/></svg><svg viewBox="0 0 502.664 502.664" id="icon" xmlns="http://www.w3.org/2000/svg"><path d="M153.821 358.226L0 274.337v-46.463l153.821-83.414v54.574L46.636 250.523l107.185 53.431v54.272zm26.273 29.358L282.103 115.08h32.227L212.084 387.584h-31.99zm168.749-29.358v-54.272l107.164-52.999-107.164-52.59v-53.927l153.821 83.522v46.183l-153.821 84.083z"/></svg></svg>